<svg width="840" height="840" viewBox="0 0 840 840" fill="none" xmlns="http://www.w3.org/2000/svg">
<g clip-path="url(#clip0_10_116)">
<g filter="url(#filter0_d_10_116)">
<path d="M39.6453 305.599C24.5751 293.902 24.8688 275.08 40.3011 263.559L301.391 68.6426C316.824 57.1216 341.551 57.2642 356.621 68.9611L433.365 128.527L116.39 365.165L39.6453 305.599Z" fill="#C3F4E1"/>
<path d="M116.39 365.165L433.365 128.527L510.11 188.094C525.18 199.791 524.886 218.612 509.454 230.133L248.364 425.05C232.931 436.571 208.204 436.429 193.134 424.732L116.39 365.165Z" fill="#74EDD0"/>
<path d="M39.6453 305.599C24.5751 293.902 24.8688 275.08 40.3011 263.559L301.391 68.6426C316.824 57.1216 341.551 57.2642 356.621 68.9611L510.11 188.094C525.18 199.791 524.886 218.612 509.454 230.133L248.364 425.05C232.931 436.571 208.204 436.429 193.134 424.732L39.6453 305.599Z" fill="url(#paint0_linear_10_116)"/>
</g>
</g>
<defs>
<filter id="filter0_d_10_116" x="25.532" y="60.0942" width="498.691" height="380.504" filterUnits="userSpaceOnUse" color-interpolation-filters="sRGB">
<feFlood flood-opacity="0" result="BackgroundImageFix"/>
<feColorMatrix in="SourceAlpha" type="matrix" values="0 0 0 0 0 0 0 0 0 0 0 0 0 0 0 0 0 0 127 0" result="hardAlpha"/>
<feOffset dy="4"/>
<feGaussianBlur stdDeviation="1.5"/>
<feComposite in2="hardAlpha" operator="out"/>
<feColorMatrix type="matrix" values="0 0 0 0 0 0 0 0 0 0.0392157 0 0 0 0 0 0 0 0 1 0"/>
<feBlend mode="normal" in2="BackgroundImageFix" result="effect1_dropShadow_10_116"/>
<feBlend mode="normal" in="SourceGraphic" in2="effect1_dropShadow_10_116" result="shape"/>
</filter>
<linearGradient id="paint0_linear_10_116" x1="212.857" y1="432.77" x2="290.452" y2="52.1438" gradientUnits="userSpaceOnUse">
<stop stop-opacity="0.25"/>
<stop offset="1" stop-opacity="0.05"/>
</linearGradient>
<clipPath id="clip0_10_116">
<rect width="840" height="840" fill="white"/>
</clipPath>
</defs>
</svg>
