<svg width="512" height="483" viewBox="0 0 512 483" fill="none" xmlns="http://www.w3.org/2000/svg">
<g clip-path="url(#clip0_12_128)">
<g filter="url(#filter0_d_12_128)">
<path d="M20.6453 299.599C5.57513 287.902 5.86877 269.08 21.3011 257.559L282.391 62.6426C297.824 51.1216 322.551 51.2642 337.621 62.9611L414.365 122.527L97.3897 359.165L20.6453 299.599Z" fill="#C3F4E1"/>
<path d="M97.3897 359.165L414.365 122.527L491.11 182.094C506.18 193.791 505.886 212.612 490.454 224.133L229.364 419.05C213.931 430.571 189.204 430.429 174.134 418.732L97.3897 359.165Z" fill="#74EDD0"/>
<path d="M20.6453 299.599C5.57513 287.902 5.86877 269.08 21.3011 257.559L282.391 62.6426C297.824 51.1216 322.551 51.2642 337.621 62.9611L491.11 182.094C506.18 193.791 505.886 212.612 490.454 224.133L229.364 419.05C213.931 430.571 189.204 430.429 174.134 418.732L20.6453 299.599Z" fill="url(#paint0_linear_12_128)"/>
</g>
</g>
<defs>
<filter id="filter0_d_12_128" x="6.53198" y="54.0942" width="498.691" height="380.504" filterUnits="userSpaceOnUse" color-interpolation-filters="sRGB">
<feFlood flood-opacity="0" result="BackgroundImageFix"/>
<feColorMatrix in="SourceAlpha" type="matrix" values="0 0 0 0 0 0 0 0 0 0 0 0 0 0 0 0 0 0 127 0" result="hardAlpha"/>
<feOffset dy="4"/>
<feGaussianBlur stdDeviation="1.5"/>
<feComposite in2="hardAlpha" operator="out"/>
<feColorMatrix type="matrix" values="0 0 0 0 0 0 0 0 0 0.0392157 0 0 0 0 0 0 0 0 1 0"/>
<feBlend mode="normal" in2="BackgroundImageFix" result="effect1_dropShadow_12_128"/>
<feBlend mode="normal" in="SourceGraphic" in2="effect1_dropShadow_12_128" result="shape"/>
</filter>
<linearGradient id="paint0_linear_12_128" x1="193.857" y1="426.77" x2="271.452" y2="46.1438" gradientUnits="userSpaceOnUse">
<stop stop-opacity="0.25"/>
<stop offset="1" stop-opacity="0.05"/>
</linearGradient>
<clipPath id="clip0_12_128">
<rect width="512" height="482.77" fill="white"/>
</clipPath>
</defs>
</svg>
